<?xml version="1.0" encoding="UTF-8" standalone="no"?>
<!DOCTYPE svg PUBLIC "-//W3C//DTD SVG 1.1//EN"
 "http://www.w3.org/Graphics/SVG/1.1/DTD/svg11.dtd">
<!-- Generated by graphviz version 2.38.0 (20140413.2041)
 -->
<!-- Title: ViennaRNA/alifold.h Pages: 1 -->
<svg width="946pt" height="386pt"
 viewBox="0.00 0.00 945.50 386.00" xmlns="http://www.w3.org/2000/svg" xmlns:xlink="http://www.w3.org/1999/xlink">
<g id="graph0" class="graph" transform="scale(1 1) rotate(0) translate(4 382)">
<title>ViennaRNA/alifold.h</title>
<!-- Node1 -->
<g id="node1" class="node"><title>Node1</title>
<polygon fill="#bfbfbf" stroke="black" points="489.5,-358.5 489.5,-377.5 594.5,-377.5 594.5,-358.5 489.5,-358.5"/>
<text text-anchor="middle" x="542" y="-365.5" font-family="Helvetica,sans-Serif" font-size="10.00">ViennaRNA/alifold.h</text>
</g>
<!-- Node2 -->
<g id="node2" class="node"><title>Node2</title>
<g id="a_node2"><a xlink:href="data__structures_8h.html" target="_top" xlink:title="ViennaRNA/data_structures.h">
<polygon fill="none" stroke="black" points="345.5,-179.5 345.5,-198.5 492.5,-198.5 492.5,-179.5 345.5,-179.5"/>
<text text-anchor="middle" x="419" y="-186.5" font-family="Helvetica,sans-Serif" font-size="10.00">ViennaRNA/data_structures.h</text>
</a>
</g>
</g>
<!-- Node1&#45;&gt;Node2 -->
<g id="edge1" class="edge"><title>Node1&#45;&gt;Node2</title>
<path fill="none" stroke="midnightblue" d="M549.733,-358.374C568.941,-335.877 615.167,-274.434 585,-235 573,-219.313 529.074,-207.822 489.423,-200.38"/>
<polygon fill="midnightblue" stroke="midnightblue" points="489.919,-196.913 479.456,-198.575 488.672,-203.801 489.919,-196.913"/>
</g>
<!-- Node6 -->
<g id="node6" class="node"><title>Node6</title>
<g id="a_node6"><a xlink:href="params_8h.html" target="_top" xlink:title="ViennaRNA/params.h">
<polygon fill="none" stroke="black" points="51,-123.5 51,-142.5 163,-142.5 163,-123.5 51,-123.5"/>
<text text-anchor="middle" x="107" y="-130.5" font-family="Helvetica,sans-Serif" font-size="10.00">ViennaRNA/params.h</text>
</a>
</g>
</g>
<!-- Node1&#45;&gt;Node6 -->
<g id="edge23" class="edge"><title>Node1&#45;&gt;Node6</title>
<path fill="none" stroke="midnightblue" d="M489.231,-363.899C427.948,-359.221 324.351,-347.96 239,-322 183.462,-305.107 157.229,-311.358 121,-266 94.8336,-233.24 98.7881,-180.375 103.267,-152.528"/>
<polygon fill="midnightblue" stroke="midnightblue" points="106.734,-153.023 105.07,-142.56 99.8456,-151.777 106.734,-153.023"/>
</g>
<!-- Node14 -->
<g id="node14" class="node"><title>Node14</title>
<g id="a_node14"><a xlink:href="ribo_8h.html" target="_top" xlink:title="Parse RiboSum Scoring Matrices for Covariance Scoring of Alignments. ">
<polygon fill="none" stroke="black" points="418.5,-302.5 418.5,-321.5 513.5,-321.5 513.5,-302.5 418.5,-302.5"/>
<text text-anchor="middle" x="466" y="-309.5" font-family="Helvetica,sans-Serif" font-size="10.00">ViennaRNA/ribo.h</text>
</a>
</g>
</g>
<!-- Node1&#45;&gt;Node14 -->
<g id="edge24" class="edge"><title>Node1&#45;&gt;Node14</title>
<path fill="none" stroke="midnightblue" d="M529.789,-358.324C518.224,-350.107 500.625,-337.602 486.839,-327.807"/>
<polygon fill="midnightblue" stroke="midnightblue" points="488.612,-324.773 478.433,-321.834 484.557,-330.479 488.612,-324.773"/>
</g>
<!-- Node15 -->
<g id="node15" class="node"><title>Node15</title>
<g id="a_node15"><a xlink:href="mfe_8h.html" target="_top" xlink:title="MFE calculations for single RNA sequences. ">
<polygon fill="none" stroke="black" points="632,-302.5 632,-321.5 728,-321.5 728,-302.5 632,-302.5"/>
<text text-anchor="middle" x="680" y="-309.5" font-family="Helvetica,sans-Serif" font-size="10.00">ViennaRNA/mfe.h</text>
</a>
</g>
</g>
<!-- Node1&#45;&gt;Node15 -->
<g id="edge25" class="edge"><title>Node1&#45;&gt;Node15</title>
<path fill="none" stroke="midnightblue" d="M563.867,-358.444C586.779,-349.478 622.975,-335.314 648.866,-325.183"/>
<polygon fill="midnightblue" stroke="midnightblue" points="650.199,-328.42 658.236,-321.516 647.648,-321.901 650.199,-328.42"/>
</g>
<!-- Node17 -->
<g id="node17" class="node"><title>Node17</title>
<g id="a_node17"><a xlink:href="part__func_8h.html" target="_top" xlink:title="Partition function of single RNA sequences. ">
<polygon fill="none" stroke="black" points="248,-302.5 248,-321.5 368,-321.5 368,-302.5 248,-302.5"/>
<text text-anchor="middle" x="308" y="-309.5" font-family="Helvetica,sans-Serif" font-size="10.00">ViennaRNA/part_func.h</text>
</a>
</g>
</g>
<!-- Node1&#45;&gt;Node17 -->
<g id="edge28" class="edge"><title>Node1&#45;&gt;Node17</title>
<path fill="none" stroke="midnightblue" d="M504.922,-358.444C464.272,-349.063 398.968,-333.993 354.816,-323.804"/>
<polygon fill="midnightblue" stroke="midnightblue" points="355.435,-320.355 344.905,-321.516 353.861,-327.175 355.435,-320.355"/>
</g>
<!-- Node20 -->
<g id="node20" class="node"><title>Node20</title>
<g id="a_node20"><a xlink:href="boltzmann__sampling_8h.html" target="_top" xlink:title="Boltzmann Sampling of secondary structures from the ensemble. ">
<polygon fill="none" stroke="black" points="460,-235.5 460,-265.5 576,-265.5 576,-235.5 460,-235.5"/>
<text text-anchor="start" x="468" y="-253.5" font-family="Helvetica,sans-Serif" font-size="10.00">ViennaRNA/boltzmann</text>
<text text-anchor="middle" x="518" y="-242.5" font-family="Helvetica,sans-Serif" font-size="10.00">_sampling.h</text>
</a>
</g>
</g>
<!-- Node1&#45;&gt;Node20 -->
<g id="edge38" class="edge"><title>Node1&#45;&gt;Node20</title>
<path fill="none" stroke="midnightblue" d="M540.196,-358.319C536.59,-340.967 528.381,-301.457 523.02,-275.658"/>
<polygon fill="midnightblue" stroke="midnightblue" points="526.38,-274.624 520.919,-265.545 519.526,-276.048 526.38,-274.624"/>
</g>
<!-- Node21 -->
<g id="node21" class="node"><title>Node21</title>
<g id="a_node21"><a xlink:href="aln__util_8h.html" target="_top" xlink:title="Various utility&#45; and helper&#45;functions for sequence alignments and comparative structure prediction...">
<polygon fill="none" stroke="black" points="746,-302.5 746,-321.5 856,-321.5 856,-302.5 746,-302.5"/>
<text text-anchor="middle" x="801" y="-309.5" font-family="Helvetica,sans-Serif" font-size="10.00">ViennaRNA/aln_util.h</text>
</a>
</g>
</g>
<!-- Node1&#45;&gt;Node21 -->
<g id="edge37" class="edge"><title>Node1&#45;&gt;Node21</title>
<path fill="none" stroke="midnightblue" d="M583.039,-358.444C628.316,-349.004 701.227,-333.802 750.106,-323.611"/>
<polygon fill="midnightblue" stroke="midnightblue" points="751.078,-326.984 760.153,-321.516 749.649,-320.131 751.078,-326.984"/>
</g>
<!-- Node3 -->
<g id="node3" class="node"><title>Node3</title>
<g id="a_node3"><a xlink:href="energy__const_8h.html" target="_top" xlink:title="ViennaRNA/energy_const.h">
<polygon fill="none" stroke="black" points="0,-62 0,-81 138,-81 138,-62 0,-62"/>
<text text-anchor="middle" x="69" y="-69" font-family="Helvetica,sans-Serif" font-size="10.00">ViennaRNA/energy_const.h</text>
</a>
</g>
</g>
<!-- Node2&#45;&gt;Node3 -->
<g id="edge2" class="edge"><title>Node2&#45;&gt;Node3</title>
<path fill="none" stroke="midnightblue" d="M371.353,-179.446C332.07,-171.774 275.181,-159.232 227,-143 178.968,-126.818 125.611,-101.339 94.8162,-85.8493"/>
<polygon fill="midnightblue" stroke="midnightblue" points="96.1475,-82.6 85.6462,-81.1956 92.9797,-88.8422 96.1475,-82.6"/>
</g>
<!-- Node5 -->
<g id="node5" class="node"><title>Node5</title>
<g id="a_node5"><a xlink:href="model_8h.html" target="_top" xlink:title="The model details data structure and its corresponding modifiers. ">
<polygon fill="none" stroke="black" points="156,-62 156,-81 262,-81 262,-62 156,-62"/>
<text text-anchor="middle" x="209" y="-69" font-family="Helvetica,sans-Serif" font-size="10.00">ViennaRNA/model.h</text>
</a>
</g>
</g>
<!-- Node2&#45;&gt;Node5 -->
<g id="edge4" class="edge"><title>Node2&#45;&gt;Node5</title>
<path fill="none" stroke="midnightblue" d="M345.446,-181.742C312.871,-175.869 275.737,-164.59 248,-143 231.14,-129.876 220.515,-107.314 214.687,-91.2491"/>
<polygon fill="midnightblue" stroke="midnightblue" points="217.876,-89.7471 211.401,-81.3612 211.233,-91.9547 217.876,-89.7471"/>
</g>
<!-- Node2&#45;&gt;Node6 -->
<g id="edge5" class="edge"><title>Node2&#45;&gt;Node6</title>
<path fill="none" stroke="midnightblue" d="M364.474,-179.444C307.269,-169.905 218.051,-154.483 161.034,-144.293"/>
<polygon fill="midnightblue" stroke="midnightblue" points="161.587,-140.836 151.126,-142.516 160.351,-147.726 161.587,-140.836"/>
</g>
<!-- Node7 -->
<g id="node7" class="node"><title>Node7</title>
<g id="a_node7"><a xlink:href="dp__matrices_8h.html" target="_top" xlink:title="ViennaRNA/dp_matrices.h">
<polygon fill="none" stroke="black" points="257.5,-123.5 257.5,-142.5 390.5,-142.5 390.5,-123.5 257.5,-123.5"/>
<text text-anchor="middle" x="324" y="-130.5" font-family="Helvetica,sans-Serif" font-size="10.00">ViennaRNA/dp_matrices.h</text>
</a>
</g>
</g>
<!-- Node2&#45;&gt;Node7 -->
<g id="edge9" class="edge"><title>Node2&#45;&gt;Node7</title>
<path fill="none" stroke="midnightblue" d="M398.622,-179.324C381.978,-170.9 358.934,-157.971 342.751,-148.074"/>
<polygon fill="midnightblue" stroke="midnightblue" points="344.446,-145.006 334.115,-142.655 340.725,-150.935 344.446,-145.006"/>
</g>
<!-- Node8 -->
<g id="node8" class="node"><title>Node8</title>
<g id="a_node8"><a xlink:href="constraints_8h.html" target="_top" xlink:title="Functions and data structures for constraining secondary structure predictions and evaluation...">
<polygon fill="none" stroke="black" points="485,-123.5 485,-142.5 613,-142.5 613,-123.5 485,-123.5"/>
<text text-anchor="middle" x="549" y="-130.5" font-family="Helvetica,sans-Serif" font-size="10.00">ViennaRNA/constraints.h</text>
</a>
</g>
</g>
<!-- Node2&#45;&gt;Node8 -->
<g id="edge11" class="edge"><title>Node2&#45;&gt;Node8</title>
<path fill="none" stroke="midnightblue" d="M434.51,-179.444C454.128,-170.478 488.005,-156.314 513.921,-146.183"/>
<polygon fill="midnightblue" stroke="midnightblue" points="515.349,-149.383 523.418,-142.516 512.828,-142.853 515.349,-149.383"/>
</g>
<!-- Node4 -->
<g id="node4" class="node"><title>Node4</title>
<polygon fill="none" stroke="#bfbfbf" points="45,-0.5 45,-19.5 93,-19.5 93,-0.5 45,-0.5"/>
<text text-anchor="middle" x="69" y="-7.5" font-family="Helvetica,sans-Serif" font-size="10.00">limits.h</text>
</g>
<!-- Node3&#45;&gt;Node4 -->
<g id="edge3" class="edge"><title>Node3&#45;&gt;Node4</title>
<path fill="none" stroke="midnightblue" d="M69,-61.9751C69,-53.5803 69,-40.4806 69,-29.6631"/>
<polygon fill="midnightblue" stroke="midnightblue" points="72.5001,-29.5091 69,-19.5091 65.5001,-29.5091 72.5001,-29.5091"/>
</g>
<!-- Node6&#45;&gt;Node2 -->
<g id="edge7" class="edge"><title>Node6&#45;&gt;Node2</title>
<path fill="none" stroke="midnightblue" d="M161.286,-142.516C218.401,-152.039 307.619,-167.459 364.726,-177.664"/>
<polygon fill="midnightblue" stroke="midnightblue" points="364.191,-181.124 374.651,-179.444 365.426,-174.234 364.191,-181.124"/>
</g>
<!-- Node6&#45;&gt;Node3 -->
<g id="edge6" class="edge"><title>Node6&#45;&gt;Node3</title>
<path fill="none" stroke="midnightblue" d="M101.556,-123.475C95.9119,-114.638 86.939,-100.589 79.8412,-89.475"/>
<polygon fill="midnightblue" stroke="midnightblue" points="82.7667,-87.5531 74.4344,-81.0091 76.8672,-91.3208 82.7667,-87.5531"/>
</g>
<!-- Node6&#45;&gt;Node5 -->
<g id="edge8" class="edge"><title>Node6&#45;&gt;Node5</title>
<path fill="none" stroke="midnightblue" d="M121.614,-123.475C138.353,-113.711 166.004,-97.5807 185.719,-86.0808"/>
<polygon fill="midnightblue" stroke="midnightblue" points="187.539,-89.0711 194.413,-81.0091 184.012,-83.0246 187.539,-89.0711"/>
</g>
<!-- Node7&#45;&gt;Node2 -->
<g id="edge10" class="edge"><title>Node7&#45;&gt;Node2</title>
<path fill="none" stroke="midnightblue" d="M344.336,-142.655C360.968,-151.071 384.013,-163.999 400.208,-173.901"/>
<polygon fill="midnightblue" stroke="midnightblue" points="398.521,-176.974 408.851,-179.324 402.241,-171.044 398.521,-176.974"/>
</g>
<!-- Node8&#45;&gt;Node2 -->
<g id="edge12" class="edge"><title>Node8&#45;&gt;Node2</title>
<path fill="none" stroke="midnightblue" d="M533.577,-142.516C514.002,-151.467 480.134,-165.629 454.195,-175.772"/>
<polygon fill="midnightblue" stroke="midnightblue" points="452.755,-172.576 444.688,-179.444 455.277,-179.106 452.755,-172.576"/>
</g>
<!-- Node9 -->
<g id="node9" class="node"><title>Node9</title>
<g id="a_node9"><a xlink:href="constraints__hard_8h.html" target="_top" xlink:title="Functions and data structures for handling of secondary structure hard constraints. ">
<polygon fill="none" stroke="black" points="280.5,-56.5 280.5,-86.5 399.5,-86.5 399.5,-56.5 280.5,-56.5"/>
<text text-anchor="start" x="288.5" y="-74.5" font-family="Helvetica,sans-Serif" font-size="10.00">ViennaRNA/constraints</text>
<text text-anchor="middle" x="340" y="-63.5" font-family="Helvetica,sans-Serif" font-size="10.00">_hard.h</text>
</a>
</g>
</g>
<!-- Node8&#45;&gt;Node9 -->
<g id="edge13" class="edge"><title>Node8&#45;&gt;Node9</title>
<path fill="none" stroke="midnightblue" d="M519.055,-123.475C487.839,-114.588 438.103,-100.429 398.962,-89.2859"/>
<polygon fill="midnightblue" stroke="midnightblue" points="399.833,-85.8949 389.257,-86.523 397.917,-92.6274 399.833,-85.8949"/>
</g>
<!-- Node10 -->
<g id="node10" class="node"><title>Node10</title>
<g id="a_node10"><a xlink:href="constraints__soft_8h.html" target="_top" xlink:title="Functions and data structures for secondary structure soft constraints. ">
<polygon fill="none" stroke="black" points="417.5,-56.5 417.5,-86.5 536.5,-86.5 536.5,-56.5 417.5,-56.5"/>
<text text-anchor="start" x="425.5" y="-74.5" font-family="Helvetica,sans-Serif" font-size="10.00">ViennaRNA/constraints</text>
<text text-anchor="middle" x="477" y="-63.5" font-family="Helvetica,sans-Serif" font-size="10.00">_soft.h</text>
</a>
</g>
</g>
<!-- Node8&#45;&gt;Node10 -->
<g id="edge15" class="edge"><title>Node8&#45;&gt;Node10</title>
<path fill="none" stroke="midnightblue" d="M538.684,-123.475C529.115,-115.567 514.494,-103.485 501.888,-93.0675"/>
<polygon fill="midnightblue" stroke="midnightblue" points="503.907,-90.1952 493.969,-86.523 499.448,-95.5912 503.907,-90.1952"/>
</g>
<!-- Node11 -->
<g id="node11" class="node"><title>Node11</title>
<g id="a_node11"><a xlink:href="constraints__SHAPE_8h.html" target="_top" xlink:title="This module provides function to incorporate SHAPE reactivity data into the folding recursions by mea...">
<polygon fill="none" stroke="black" points="554.5,-56.5 554.5,-86.5 673.5,-86.5 673.5,-56.5 554.5,-56.5"/>
<text text-anchor="start" x="562.5" y="-74.5" font-family="Helvetica,sans-Serif" font-size="10.00">ViennaRNA/constraints</text>
<text text-anchor="middle" x="614" y="-63.5" font-family="Helvetica,sans-Serif" font-size="10.00">_SHAPE.h</text>
</a>
</g>
</g>
<!-- Node8&#45;&gt;Node11 -->
<g id="edge17" class="edge"><title>Node8&#45;&gt;Node11</title>
<path fill="none" stroke="midnightblue" d="M558.313,-123.475C566.869,-115.643 579.9,-103.714 591.206,-93.3656"/>
<polygon fill="midnightblue" stroke="midnightblue" points="593.668,-95.8568 598.681,-86.523 588.941,-90.6934 593.668,-95.8568"/>
</g>
<!-- Node12 -->
<g id="node12" class="node"><title>Node12</title>
<g id="a_node12"><a xlink:href="perturbation__fold_8h.html" target="_top" xlink:title="Find a vector of perturbation energies that minimizes the discripancies between predicted and observe...">
<polygon fill="none" stroke="black" points="692,-56.5 692,-86.5 814,-86.5 814,-56.5 692,-56.5"/>
<text text-anchor="start" x="700" y="-74.5" font-family="Helvetica,sans-Serif" font-size="10.00">ViennaRNA/perturbation</text>
<text text-anchor="middle" x="753" y="-63.5" font-family="Helvetica,sans-Serif" font-size="10.00">_fold.h</text>
</a>
</g>
</g>
<!-- Node8&#45;&gt;Node12 -->
<g id="edge19" class="edge"><title>Node8&#45;&gt;Node12</title>
<path fill="none" stroke="midnightblue" d="M578.228,-123.475C608.568,-114.626 656.833,-100.549 694.962,-89.4277"/>
<polygon fill="midnightblue" stroke="midnightblue" points="696.301,-92.683 704.921,-86.523 694.341,-85.963 696.301,-92.683"/>
</g>
<!-- Node13 -->
<g id="node13" class="node"><title>Node13</title>
<g id="a_node13"><a xlink:href="ligand_8h.html" target="_top" xlink:title="Functions for incorporation of ligands binding to haipirn and interior loop motifs. ">
<polygon fill="none" stroke="black" points="832.5,-62 832.5,-81 937.5,-81 937.5,-62 832.5,-62"/>
<text text-anchor="middle" x="885" y="-69" font-family="Helvetica,sans-Serif" font-size="10.00">ViennaRNA/ligand.h</text>
</a>
</g>
</g>
<!-- Node8&#45;&gt;Node13 -->
<g id="edge21" class="edge"><title>Node8&#45;&gt;Node13</title>
<path fill="none" stroke="midnightblue" d="M608,-123.478C663.629,-115.167 749.241,-101.665 823,-87 828.696,-85.8676 834.664,-84.5894 840.554,-83.2729"/>
<polygon fill="midnightblue" stroke="midnightblue" points="841.36,-86.679 850.33,-81.0402 839.802,-79.8547 841.36,-86.679"/>
</g>
<!-- Node9&#45;&gt;Node2 -->
<g id="edge14" class="edge"><title>Node9&#45;&gt;Node2</title>
<path fill="none" stroke="midnightblue" d="M361.821,-86.508C374.32,-95.5517 389.384,-108.345 399,-123 408.21,-137.036 413.359,-155.532 416.117,-169.204"/>
<polygon fill="midnightblue" stroke="midnightblue" points="412.723,-170.111 417.908,-179.35 419.616,-168.894 412.723,-170.111"/>
</g>
<!-- Node10&#45;&gt;Node2 -->
<g id="edge16" class="edge"><title>Node10&#45;&gt;Node2</title>
<path fill="none" stroke="midnightblue" d="M469.947,-86.5453C459.374,-107.6 439.427,-147.323 427.877,-170.322"/>
<polygon fill="midnightblue" stroke="midnightblue" points="424.719,-168.812 423.359,-179.319 430.975,-171.953 424.719,-168.812"/>
</g>
<!-- Node11&#45;&gt;Node2 -->
<g id="edge18" class="edge"><title>Node11&#45;&gt;Node2</title>
<path fill="none" stroke="midnightblue" d="M621.017,-86.6009C627.636,-102.144 634.799,-127.053 622,-143 606.833,-161.898 551.746,-173.35 502.779,-179.97"/>
<polygon fill="midnightblue" stroke="midnightblue" points="502.227,-176.512 492.761,-181.27 503.128,-183.453 502.227,-176.512"/>
</g>
<!-- Node12&#45;&gt;Node2 -->
<g id="edge20" class="edge"><title>Node12&#45;&gt;Node2</title>
<path fill="none" stroke="midnightblue" d="M734.914,-86.665C713.474,-102.748 676.085,-128.615 640,-143 596.226,-160.45 544.766,-171.439 502.521,-178.184"/>
<polygon fill="midnightblue" stroke="midnightblue" points="501.895,-174.739 492.547,-179.726 502.965,-181.657 501.895,-174.739"/>
</g>
<!-- Node13&#45;&gt;Node2 -->
<g id="edge22" class="edge"><title>Node13&#45;&gt;Node2</title>
<path fill="none" stroke="midnightblue" d="M862.84,-81.115C824.753,-95.6466 744.192,-125.184 674,-143 613.542,-158.345 543.712,-170.275 492.429,-177.985"/>
<polygon fill="midnightblue" stroke="midnightblue" points="491.805,-174.539 482.428,-179.47 492.833,-181.463 491.805,-174.539"/>
</g>
<!-- Node15&#45;&gt;Node2 -->
<g id="edge27" class="edge"><title>Node15&#45;&gt;Node2</title>
<path fill="none" stroke="midnightblue" d="M675.524,-302.352C666.773,-286.356 645.796,-252.212 618,-235 583.729,-213.778 540.603,-202.532 503.267,-196.585"/>
<polygon fill="midnightblue" stroke="midnightblue" points="503.308,-193.053 492.902,-195.045 502.278,-199.977 503.308,-193.053"/>
</g>
<!-- Node16 -->
<g id="node16" class="node"><title>Node16</title>
<polygon fill="none" stroke="#bfbfbf" points="670,-241 670,-260 716,-260 716,-241 670,-241"/>
<text text-anchor="middle" x="693" y="-248" font-family="Helvetica,sans-Serif" font-size="10.00">stdio.h</text>
</g>
<!-- Node15&#45;&gt;Node16 -->
<g id="edge26" class="edge"><title>Node15&#45;&gt;Node16</title>
<path fill="none" stroke="midnightblue" d="M681.863,-302.475C683.716,-293.992 686.619,-280.704 688.997,-269.822"/>
<polygon fill="midnightblue" stroke="midnightblue" points="692.426,-270.526 691.141,-260.009 685.587,-269.032 692.426,-270.526"/>
</g>
<!-- Node17&#45;&gt;Node2 -->
<g id="edge29" class="edge"><title>Node17&#45;&gt;Node2</title>
<path fill="none" stroke="midnightblue" d="M306.776,-302.484C305.08,-287.295 303.754,-255.229 319,-235 331.044,-219.02 350.056,-208.576 368.283,-201.816"/>
<polygon fill="midnightblue" stroke="midnightblue" points="369.648,-205.049 377.99,-198.517 367.395,-198.421 369.648,-205.049"/>
</g>
<!-- Node17&#45;&gt;Node6 -->
<g id="edge30" class="edge"><title>Node17&#45;&gt;Node6</title>
<path fill="none" stroke="midnightblue" d="M247.732,-308.48C213.423,-303.937 172.029,-292.735 145,-266 114.005,-235.342 107.899,-181.156 106.942,-152.68"/>
<polygon fill="midnightblue" stroke="midnightblue" points="110.439,-152.448 106.787,-142.503 103.44,-152.555 110.439,-152.448"/>
</g>
<!-- Node18 -->
<g id="node18" class="node"><title>Node18</title>
<g id="a_node18"><a xlink:href="centroid_8h.html" target="_top" xlink:title="Centroid structure computation. ">
<polygon fill="none" stroke="black" points="328,-241 328,-260 442,-260 442,-241 328,-241"/>
<text text-anchor="middle" x="385" y="-248" font-family="Helvetica,sans-Serif" font-size="10.00">ViennaRNA/centroid.h</text>
</a>
</g>
</g>
<!-- Node17&#45;&gt;Node18 -->
<g id="edge31" class="edge"><title>Node17&#45;&gt;Node18</title>
<path fill="none" stroke="midnightblue" d="M319.032,-302.475C331.268,-293.02 351.229,-277.596 365.993,-266.187"/>
<polygon fill="midnightblue" stroke="midnightblue" points="368.215,-268.893 373.988,-260.009 363.935,-263.354 368.215,-268.893"/>
</g>
<!-- Node19 -->
<g id="node19" class="node"><title>Node19</title>
<g id="a_node19"><a xlink:href="equilibrium__probs_8h.html" target="_top" xlink:title="Equilibrium Probability implementations. ">
<polygon fill="none" stroke="black" points="154,-235.5 154,-265.5 272,-265.5 272,-235.5 154,-235.5"/>
<text text-anchor="start" x="162" y="-253.5" font-family="Helvetica,sans-Serif" font-size="10.00">ViennaRNA/equilibrium</text>
<text text-anchor="middle" x="213" y="-242.5" font-family="Helvetica,sans-Serif" font-size="10.00">_probs.h</text>
</a>
</g>
</g>
<!-- Node17&#45;&gt;Node19 -->
<g id="edge33" class="edge"><title>Node17&#45;&gt;Node19</title>
<path fill="none" stroke="midnightblue" d="M294.389,-302.475C281.282,-294.266 260.992,-281.558 243.95,-270.885"/>
<polygon fill="midnightblue" stroke="midnightblue" points="245.722,-267.865 235.39,-265.523 242.007,-273.797 245.722,-267.865"/>
</g>
<!-- Node17&#45;&gt;Node20 -->
<g id="edge35" class="edge"><title>Node17&#45;&gt;Node20</title>
<path fill="none" stroke="midnightblue" d="M338.088,-302.475C369.453,-293.588 419.428,-279.429 458.756,-268.286"/>
<polygon fill="midnightblue" stroke="midnightblue" points="459.84,-271.617 468.507,-265.523 457.932,-264.882 459.84,-271.617"/>
</g>
<!-- Node18&#45;&gt;Node2 -->
<g id="edge32" class="edge"><title>Node18&#45;&gt;Node2</title>
<path fill="none" stroke="midnightblue" d="M389.871,-240.975C394.87,-232.227 402.789,-218.369 409.109,-207.309"/>
<polygon fill="midnightblue" stroke="midnightblue" points="412.215,-208.928 414.138,-198.509 406.137,-205.455 412.215,-208.928"/>
</g>
<!-- Node19&#45;&gt;Node2 -->
<g id="edge34" class="edge"><title>Node19&#45;&gt;Node2</title>
<path fill="none" stroke="midnightblue" d="M261.558,-235.475C297.563,-225.075 346.023,-211.078 379.628,-201.372"/>
<polygon fill="midnightblue" stroke="midnightblue" points="380.913,-204.644 389.549,-198.506 378.971,-197.919 380.913,-204.644"/>
</g>
<!-- Node20&#45;&gt;Node2 -->
<g id="edge36" class="edge"><title>Node20&#45;&gt;Node2</title>
<path fill="none" stroke="midnightblue" d="M494.538,-235.399C478.669,-225.862 457.809,-213.325 442.032,-203.842"/>
<polygon fill="midnightblue" stroke="midnightblue" points="443.779,-200.809 433.405,-198.658 440.174,-206.809 443.779,-200.809"/>
</g>
</g>
</svg>
