<?xml version="1.0" encoding="UTF-8" standalone="no"?>
<!DOCTYPE svg PUBLIC "-//W3C//DTD SVG 1.1//EN"
 "http://www.w3.org/Graphics/SVG/1.1/DTD/svg11.dtd">
<!-- Generated by graphviz version 2.38.0 (20140413.2041)
 -->
<!-- Title: ViennaRNA/file_formats.h Pages: 1 -->
<svg width="1026pt" height="274pt"
 viewBox="0.00 0.00 1025.50 274.00" xmlns="http://www.w3.org/2000/svg" xmlns:xlink="http://www.w3.org/1999/xlink">
<g id="graph0" class="graph" transform="scale(1 1) rotate(0) translate(4 270)">
<title>ViennaRNA/file_formats.h</title>
<!-- Node1 -->
<g id="node1" class="node"><title>Node1</title>
<polygon fill="#bfbfbf" stroke="black" points="84.5,-246.5 84.5,-265.5 215.5,-265.5 215.5,-246.5 84.5,-246.5"/>
<text text-anchor="middle" x="150" y="-253.5" font-family="Helvetica,sans-Serif" font-size="10.00">ViennaRNA/file_formats.h</text>
</g>
<!-- Node2 -->
<g id="node2" class="node"><title>Node2</title>
<polygon fill="none" stroke="#bfbfbf" points="38,-123.5 38,-142.5 84,-142.5 84,-123.5 38,-123.5"/>
<text text-anchor="middle" x="61" y="-130.5" font-family="Helvetica,sans-Serif" font-size="10.00">stdio.h</text>
</g>
<!-- Node1&#45;&gt;Node2 -->
<g id="edge1" class="edge"><title>Node1&#45;&gt;Node2</title>
<path fill="none" stroke="midnightblue" d="M149.845,-246.16C149.164,-231.025 145.903,-199.777 131,-179 121.148,-165.265 105.68,-154.685 91.7871,-147.245"/>
<polygon fill="midnightblue" stroke="midnightblue" points="93.0174,-143.947 82.509,-142.596 89.8815,-150.205 93.0174,-143.947"/>
</g>
<!-- Node3 -->
<g id="node3" class="node"><title>Node3</title>
<g id="a_node3"><a xlink:href="data__structures_8h.html" target="_top" xlink:title="ViennaRNA/data_structures.h">
<polygon fill="none" stroke="black" points="377.5,-185 377.5,-204 524.5,-204 524.5,-185 377.5,-185"/>
<text text-anchor="middle" x="451" y="-192" font-family="Helvetica,sans-Serif" font-size="10.00">ViennaRNA/data_structures.h</text>
</a>
</g>
</g>
<!-- Node1&#45;&gt;Node3 -->
<g id="edge2" class="edge"><title>Node1&#45;&gt;Node3</title>
<path fill="none" stroke="midnightblue" d="M193.126,-246.475C247.105,-235.805 339.536,-217.534 397.837,-206.009"/>
<polygon fill="midnightblue" stroke="midnightblue" points="398.823,-209.382 407.954,-204.009 397.465,-202.515 398.823,-209.382"/>
</g>
<!-- Node15 -->
<g id="node15" class="node"><title>Node15</title>
<g id="a_node15"><a xlink:href="file__formats__msa_8h.html" target="_top" xlink:title="Functions dealing with file formats for Multiple Sequence Alignments (MSA) ">
<polygon fill="none" stroke="black" points="0,-179.5 0,-209.5 122,-209.5 122,-179.5 0,-179.5"/>
<text text-anchor="start" x="8" y="-197.5" font-family="Helvetica,sans-Serif" font-size="10.00">ViennaRNA/file_formats</text>
<text text-anchor="middle" x="61" y="-186.5" font-family="Helvetica,sans-Serif" font-size="10.00">_msa.h</text>
</a>
</g>
</g>
<!-- Node1&#45;&gt;Node15 -->
<g id="edge24" class="edge"><title>Node1&#45;&gt;Node15</title>
<path fill="none" stroke="midnightblue" d="M137.248,-246.475C125.082,-238.341 106.309,-225.791 90.4355,-215.179"/>
<polygon fill="midnightblue" stroke="midnightblue" points="92.2341,-212.171 81.9755,-209.523 88.3436,-217.99 92.2341,-212.171"/>
</g>
<!-- Node4 -->
<g id="node4" class="node"><title>Node4</title>
<g id="a_node4"><a xlink:href="energy__const_8h.html" target="_top" xlink:title="ViennaRNA/energy_const.h">
<polygon fill="none" stroke="black" points="204,-62 204,-81 342,-81 342,-62 204,-62"/>
<text text-anchor="middle" x="273" y="-69" font-family="Helvetica,sans-Serif" font-size="10.00">ViennaRNA/energy_const.h</text>
</a>
</g>
</g>
<!-- Node3&#45;&gt;Node4 -->
<g id="edge3" class="edge"><title>Node3&#45;&gt;Node4</title>
<path fill="none" stroke="midnightblue" d="M448.572,-184.832C444.013,-170.087 432.801,-140.065 413,-123 390.164,-103.32 359.064,-91.0888 331.976,-83.6048"/>
<polygon fill="midnightblue" stroke="midnightblue" points="332.76,-80.1923 322.2,-81.0574 330.994,-86.9661 332.76,-80.1923"/>
</g>
<!-- Node6 -->
<g id="node6" class="node"><title>Node6</title>
<g id="a_node6"><a xlink:href="model_8h.html" target="_top" xlink:title="The model details data structure and its corresponding modifiers. ">
<polygon fill="none" stroke="black" points="80,-62 80,-81 186,-81 186,-62 80,-62"/>
<text text-anchor="middle" x="133" y="-69" font-family="Helvetica,sans-Serif" font-size="10.00">ViennaRNA/model.h</text>
</a>
</g>
</g>
<!-- Node3&#45;&gt;Node6 -->
<g id="edge5" class="edge"><title>Node3&#45;&gt;Node6</title>
<path fill="none" stroke="midnightblue" d="M415.94,-184.953C381.507,-176.097 327.776,-161.036 283,-143 264.931,-135.722 261.537,-131.48 244,-123 216.439,-109.673 184.598,-95.2888 162.106,-85.2943"/>
<polygon fill="midnightblue" stroke="midnightblue" points="163.34,-82.0129 152.78,-81.1633 160.505,-88.4132 163.34,-82.0129"/>
</g>
<!-- Node7 -->
<g id="node7" class="node"><title>Node7</title>
<g id="a_node7"><a xlink:href="params_8h.html" target="_top" xlink:title="ViennaRNA/params.h">
<polygon fill="none" stroke="black" points="292,-123.5 292,-142.5 404,-142.5 404,-123.5 292,-123.5"/>
<text text-anchor="middle" x="348" y="-130.5" font-family="Helvetica,sans-Serif" font-size="10.00">ViennaRNA/params.h</text>
</a>
</g>
</g>
<!-- Node3&#45;&gt;Node7 -->
<g id="edge6" class="edge"><title>Node3&#45;&gt;Node7</title>
<path fill="none" stroke="midnightblue" d="M431.342,-184.975C412.567,-175.343 384.861,-159.517 366.491,-148.052"/>
<polygon fill="midnightblue" stroke="midnightblue" points="368.142,-144.953 357.833,-142.509 364.368,-150.848 368.142,-144.953"/>
</g>
<!-- Node8 -->
<g id="node8" class="node"><title>Node8</title>
<g id="a_node8"><a xlink:href="dp__matrices_8h.html" target="_top" xlink:title="ViennaRNA/dp_matrices.h">
<polygon fill="none" stroke="black" points="102.5,-123.5 102.5,-142.5 235.5,-142.5 235.5,-123.5 102.5,-123.5"/>
<text text-anchor="middle" x="169" y="-130.5" font-family="Helvetica,sans-Serif" font-size="10.00">ViennaRNA/dp_matrices.h</text>
</a>
</g>
</g>
<!-- Node3&#45;&gt;Node8 -->
<g id="edge10" class="edge"><title>Node3&#45;&gt;Node8</title>
<path fill="none" stroke="midnightblue" d="M405.696,-184.975C353.125,-174.371 267.145,-156.26 214.497,-144.724"/>
<polygon fill="midnightblue" stroke="midnightblue" points="214.95,-141.24 204.432,-142.509 213.446,-148.077 214.95,-141.24"/>
</g>
<!-- Node9 -->
<g id="node9" class="node"><title>Node9</title>
<g id="a_node9"><a xlink:href="constraints_8h.html" target="_top" xlink:title="Functions and data structures for constraining secondary structure predictions and evaluation...">
<polygon fill="none" stroke="black" points="574,-123.5 574,-142.5 702,-142.5 702,-123.5 574,-123.5"/>
<text text-anchor="middle" x="638" y="-130.5" font-family="Helvetica,sans-Serif" font-size="10.00">ViennaRNA/constraints.h</text>
</a>
</g>
</g>
<!-- Node3&#45;&gt;Node9 -->
<g id="edge12" class="edge"><title>Node3&#45;&gt;Node9</title>
<path fill="none" stroke="midnightblue" d="M472.892,-184.975C503.26,-174.592 558.328,-157.012 596.547,-145.454"/>
<polygon fill="midnightblue" stroke="midnightblue" points="597.788,-148.736 606.36,-142.509 595.776,-142.031 597.788,-148.736"/>
</g>
<!-- Node5 -->
<g id="node5" class="node"><title>Node5</title>
<polygon fill="none" stroke="#bfbfbf" points="249,-0.5 249,-19.5 297,-19.5 297,-0.5 249,-0.5"/>
<text text-anchor="middle" x="273" y="-7.5" font-family="Helvetica,sans-Serif" font-size="10.00">limits.h</text>
</g>
<!-- Node4&#45;&gt;Node5 -->
<g id="edge4" class="edge"><title>Node4&#45;&gt;Node5</title>
<path fill="none" stroke="midnightblue" d="M273,-61.9751C273,-53.5803 273,-40.4806 273,-29.6631"/>
<polygon fill="midnightblue" stroke="midnightblue" points="276.5,-29.5091 273,-19.5091 269.5,-29.5091 276.5,-29.5091"/>
</g>
<!-- Node7&#45;&gt;Node3 -->
<g id="edge8" class="edge"><title>Node7&#45;&gt;Node3</title>
<path fill="none" stroke="midnightblue" d="M367.627,-142.509C386.392,-152.134 414.099,-167.959 432.479,-179.43"/>
<polygon fill="midnightblue" stroke="midnightblue" points="430.834,-182.532 441.143,-184.975 434.607,-176.636 430.834,-182.532"/>
</g>
<!-- Node7&#45;&gt;Node4 -->
<g id="edge7" class="edge"><title>Node7&#45;&gt;Node4</title>
<path fill="none" stroke="midnightblue" d="M337.254,-123.475C325.447,-114.108 306.257,-98.8839 291.918,-87.5081"/>
<polygon fill="midnightblue" stroke="midnightblue" points="293.735,-84.4822 283.726,-81.0091 289.385,-89.9661 293.735,-84.4822"/>
</g>
<!-- Node7&#45;&gt;Node6 -->
<g id="edge9" class="edge"><title>Node7&#45;&gt;Node6</title>
<path fill="none" stroke="midnightblue" d="M317.196,-123.475C279.438,-113.026 215.339,-95.2868 173.591,-83.7332"/>
<polygon fill="midnightblue" stroke="midnightblue" points="174.318,-80.3031 163.747,-81.0091 172.451,-87.0496 174.318,-80.3031"/>
</g>
<!-- Node8&#45;&gt;Node3 -->
<g id="edge11" class="edge"><title>Node8&#45;&gt;Node3</title>
<path fill="none" stroke="midnightblue" d="M214.226,-142.509C266.763,-153.106 352.743,-171.216 405.424,-182.758"/>
<polygon fill="midnightblue" stroke="midnightblue" points="404.978,-186.244 415.497,-184.975 406.483,-179.407 404.978,-186.244"/>
</g>
<!-- Node9&#45;&gt;Node3 -->
<g id="edge13" class="edge"><title>Node9&#45;&gt;Node3</title>
<path fill="none" stroke="midnightblue" d="M616.154,-142.509C585.811,-152.885 530.747,-170.465 492.511,-182.029"/>
<polygon fill="midnightblue" stroke="midnightblue" points="491.265,-178.748 482.693,-184.975 493.277,-185.453 491.265,-178.748"/>
</g>
<!-- Node10 -->
<g id="node10" class="node"><title>Node10</title>
<g id="a_node10"><a xlink:href="constraints__hard_8h.html" target="_top" xlink:title="Functions and data structures for handling of secondary structure hard constraints. ">
<polygon fill="none" stroke="black" points="360.5,-56.5 360.5,-86.5 479.5,-86.5 479.5,-56.5 360.5,-56.5"/>
<text text-anchor="start" x="368.5" y="-74.5" font-family="Helvetica,sans-Serif" font-size="10.00">ViennaRNA/constraints</text>
<text text-anchor="middle" x="420" y="-63.5" font-family="Helvetica,sans-Serif" font-size="10.00">_hard.h</text>
</a>
</g>
</g>
<!-- Node9&#45;&gt;Node10 -->
<g id="edge14" class="edge"><title>Node9&#45;&gt;Node10</title>
<path fill="none" stroke="midnightblue" d="M606.766,-123.475C574.137,-114.569 522.108,-100.369 481.242,-89.2151"/>
<polygon fill="midnightblue" stroke="midnightblue" points="481.947,-85.7796 471.378,-86.523 480.104,-92.5326 481.947,-85.7796"/>
</g>
<!-- Node11 -->
<g id="node11" class="node"><title>Node11</title>
<g id="a_node11"><a xlink:href="constraints__soft_8h.html" target="_top" xlink:title="Functions and data structures for secondary structure soft constraints. ">
<polygon fill="none" stroke="black" points="497.5,-56.5 497.5,-86.5 616.5,-86.5 616.5,-56.5 497.5,-56.5"/>
<text text-anchor="start" x="505.5" y="-74.5" font-family="Helvetica,sans-Serif" font-size="10.00">ViennaRNA/constraints</text>
<text text-anchor="middle" x="557" y="-63.5" font-family="Helvetica,sans-Serif" font-size="10.00">_soft.h</text>
</a>
</g>
</g>
<!-- Node9&#45;&gt;Node11 -->
<g id="edge16" class="edge"><title>Node9&#45;&gt;Node11</title>
<path fill="none" stroke="midnightblue" d="M626.395,-123.475C615.424,-115.417 598.552,-103.023 584.192,-92.4741"/>
<polygon fill="midnightblue" stroke="midnightblue" points="586.221,-89.6224 576.09,-86.523 582.077,-95.2639 586.221,-89.6224"/>
</g>
<!-- Node12 -->
<g id="node12" class="node"><title>Node12</title>
<g id="a_node12"><a xlink:href="constraints__SHAPE_8h.html" target="_top" xlink:title="This module provides function to incorporate SHAPE reactivity data into the folding recursions by mea...">
<polygon fill="none" stroke="black" points="634.5,-56.5 634.5,-86.5 753.5,-86.5 753.5,-56.5 634.5,-56.5"/>
<text text-anchor="start" x="642.5" y="-74.5" font-family="Helvetica,sans-Serif" font-size="10.00">ViennaRNA/constraints</text>
<text text-anchor="middle" x="694" y="-63.5" font-family="Helvetica,sans-Serif" font-size="10.00">_SHAPE.h</text>
</a>
</g>
</g>
<!-- Node9&#45;&gt;Node12 -->
<g id="edge18" class="edge"><title>Node9&#45;&gt;Node12</title>
<path fill="none" stroke="midnightblue" d="M646.023,-123.475C653.253,-115.793 664.191,-104.172 673.798,-93.9643"/>
<polygon fill="midnightblue" stroke="midnightblue" points="676.497,-96.2038 680.802,-86.523 671.4,-91.4062 676.497,-96.2038"/>
</g>
<!-- Node13 -->
<g id="node13" class="node"><title>Node13</title>
<g id="a_node13"><a xlink:href="perturbation__fold_8h.html" target="_top" xlink:title="Find a vector of perturbation energies that minimizes the discripancies between predicted and observe...">
<polygon fill="none" stroke="black" points="772,-56.5 772,-86.5 894,-86.5 894,-56.5 772,-56.5"/>
<text text-anchor="start" x="780" y="-74.5" font-family="Helvetica,sans-Serif" font-size="10.00">ViennaRNA/perturbation</text>
<text text-anchor="middle" x="833" y="-63.5" font-family="Helvetica,sans-Serif" font-size="10.00">_fold.h</text>
</a>
</g>
</g>
<!-- Node9&#45;&gt;Node13 -->
<g id="edge20" class="edge"><title>Node9&#45;&gt;Node13</title>
<path fill="none" stroke="midnightblue" d="M665.939,-123.475C694.817,-114.664 740.683,-100.668 777.057,-89.5698"/>
<polygon fill="midnightblue" stroke="midnightblue" points="778.499,-92.7891 787.042,-86.523 776.456,-86.0939 778.499,-92.7891"/>
</g>
<!-- Node14 -->
<g id="node14" class="node"><title>Node14</title>
<g id="a_node14"><a xlink:href="ligand_8h.html" target="_top" xlink:title="Functions for incorporation of ligands binding to haipirn and interior loop motifs. ">
<polygon fill="none" stroke="black" points="912.5,-62 912.5,-81 1017.5,-81 1017.5,-62 912.5,-62"/>
<text text-anchor="middle" x="965" y="-69" font-family="Helvetica,sans-Serif" font-size="10.00">ViennaRNA/ligand.h</text>
</a>
</g>
</g>
<!-- Node9&#45;&gt;Node14 -->
<g id="edge22" class="edge"><title>Node9&#45;&gt;Node14</title>
<path fill="none" stroke="midnightblue" d="M694.276,-123.473C748.048,-115.082 831.295,-101.459 903,-87 908.692,-85.8522 914.659,-84.5649 920.548,-83.2436"/>
<polygon fill="midnightblue" stroke="midnightblue" points="921.356,-86.6493 930.323,-81.0067 919.795,-79.8257 921.356,-86.6493"/>
</g>
<!-- Node10&#45;&gt;Node3 -->
<g id="edge15" class="edge"><title>Node10&#45;&gt;Node3</title>
<path fill="none" stroke="midnightblue" d="M429.398,-86.8733C435.271,-96.6407 442.382,-110.086 446,-123 450.753,-139.968 451.747,-160.085 451.704,-174.478"/>
<polygon fill="midnightblue" stroke="midnightblue" points="448.201,-174.555 451.498,-184.624 455.2,-174.697 448.201,-174.555"/>
</g>
<!-- Node11&#45;&gt;Node3 -->
<g id="edge17" class="edge"><title>Node11&#45;&gt;Node3</title>
<path fill="none" stroke="midnightblue" d="M544.701,-86.5392C524.925,-109.113 486.162,-153.363 465.225,-177.262"/>
<polygon fill="midnightblue" stroke="midnightblue" points="462.58,-174.97 458.623,-184.798 467.845,-179.582 462.58,-174.97"/>
</g>
<!-- Node12&#45;&gt;Node3 -->
<g id="edge19" class="edge"><title>Node12&#45;&gt;Node3</title>
<path fill="none" stroke="midnightblue" d="M652.51,-86.5767C626.807,-95.8238 593.398,-108.807 565,-123 530.972,-140.008 493.916,-164.043 471.575,-179.194"/>
<polygon fill="midnightblue" stroke="midnightblue" points="469.5,-176.373 463.225,-184.91 473.454,-182.149 469.5,-176.373"/>
</g>
<!-- Node13&#45;&gt;Node3 -->
<g id="edge21" class="edge"><title>Node13&#45;&gt;Node3</title>
<path fill="none" stroke="midnightblue" d="M813.308,-86.6607C790.005,-102.74 749.493,-128.603 711,-143 654.17,-164.256 586.848,-177.016 534.949,-184.392"/>
<polygon fill="midnightblue" stroke="midnightblue" points="534.209,-180.961 524.782,-185.796 535.167,-187.895 534.209,-180.961"/>
</g>
<!-- Node14&#45;&gt;Node3 -->
<g id="edge23" class="edge"><title>Node14&#45;&gt;Node3</title>
<path fill="none" stroke="midnightblue" d="M941.975,-81.1102C902.406,-95.6348 818.737,-125.162 746,-143 672.296,-161.075 586.672,-174.963 526.719,-183.558"/>
<polygon fill="midnightblue" stroke="midnightblue" points="525.988,-180.127 516.579,-184.997 526.971,-187.057 525.988,-180.127"/>
</g>
<!-- Node15&#45;&gt;Node2 -->
<g id="edge25" class="edge"><title>Node15&#45;&gt;Node2</title>
<path fill="none" stroke="midnightblue" d="M61,-179.399C61,-171.466 61,-161.458 61,-152.858"/>
<polygon fill="midnightblue" stroke="midnightblue" points="64.5001,-152.658 61,-142.658 57.5001,-152.658 64.5001,-152.658"/>
</g>
</g>
</svg>
